<?xml version="1.0" encoding="utf-8"?>
<!-- Generator: Adobe Illustrator 23.0.1, SVG Export Plug-In . SVG Version: 6.00 Build 0)  -->
<svg version="1.1" id="Layer_1" xmlns="http://www.w3.org/2000/svg" xmlns:xlink="http://www.w3.org/1999/xlink" x="0px" y="0px"
	 viewBox="0 0 498 218" style="enable-background:new 0 0 498 218;" xml:space="preserve">
<style type="text/css">
	.st0{fill:#FFFFFF;}
	.st1{fill:url(#SVGID_1_);}
	.st2{fill:url(#SVGID_2_);}
	.st3{fill:url(#SVGID_3_);}
</style>
<g id="Layer_4">
	<path class="st0" d="M117,160v24h30v-21.5c-3.7,1-7.5,1.5-11.5,1.5C129,164,122.7,162.6,117,160z"/>
	<path class="st0" d="M409,24c-10,9-25,21-49,28c1.7,9.3,3.3,18.7,5,28c6.1-1.7,13.8-4.4,22-9c6.5-3.6,11.8-7.5,16-11
		c0,41.7,0,83.3,0,125c11,0,22,0,33,0c0-53.7,0-107.3,0-161C427,24,418,24,409,24z"/>
	<path class="st0" d="M147,73.1V51.5V24h-40L37,129v18h62.5c-5.8-6.6-10.1-14.8-12.5-24H69l16.6-24.9l28.5-42.7l2.3-3.5L117,51v3
		v20.8V123h-10.8c1.7,11.8,13.3,21,27.3,21s25.6-9.2,27.3-21H147V73.1z"/>
	<linearGradient id="SVGID_1_" gradientUnits="userSpaceOnUse" x1="85" y1="107.7" x2="417" y2="107.7">
		<stop  offset="0" style="stop-color:#A35AA3"/>
		<stop  offset="1.845330e-02" style="stop-color:#A159A2"/>
		<stop  offset="0.5477" style="stop-color:#743494"/>
		<stop  offset="0.8147" style="stop-color:#63268E"/>
		<stop  offset="1" style="stop-color:#A35AA3"/>
	</linearGradient>
	<path class="st1" d="M415,97.3c-1.6-1.4-4-1.3-5-1.3c0,0-33.6,0.1-86.8,0.1l-46.8,0c-15.3,0-31.5,0-48.6-0.1
		c-10.6,0-21.5,0-32.7-0.1c-0.4,0-0.8,0-1.2,0c-5,0-12.3-11.8-12.9-13.6c-0.7-2.1-1.9-4.1-1.9-4.1c0-0.1-0.1-0.2-0.1-0.3
		c0,0,0,0,0,0.1c-6.9-13.2-18.4-23-32-26.6V73c8.4,4.1,14,11.9,14,20.9c0,4.8-1.6,9.3-4.4,13c2.8,3.7,4.4,8.2,4.4,13
		c0,1-0.1,2-0.2,3c-1.7,11.8-13.3,21-27.3,21s-25.6-9.2-27.3-21c-0.1-1-0.2-2-0.2-3c0-4.8,1.6-9.3,4.4-13c-2.8-3.7-4.4-8.2-4.4-13
		c0-7.9,4.3-14.8,11-19.2V54c-1,0.4-2,0.9-2.9,1.4L85.6,98.1C85.2,101,85,104,85,107c0,5.6,0.7,10.9,2,16c2.4,9.2,6.7,17.4,12.5,24
		c4.9,5.6,10.8,10.1,17.5,13c5.7,2.5,12,4,18.5,4c4,0,7.8-0.5,11.5-1.5c13.6-3.6,25.1-13.4,32-26.6c0,0,0,0,0,0.1
		c0-0.1,0.1-0.2,0.1-0.3c0,0,1.2-2,1.9-4.1c0.6-1.8,7.9-13.6,12.9-13.6c0.5,0,0.9,0,1.4,0c11.1,0,22-0.1,32.6-0.1
		c16.9,0,33-0.1,48.2-0.1l46.6,0.1c0,0,0,0,0,0c53.5,0,87.3,0.1,87.3,0.1c1,0,3.4,0.1,5-1.3c1.6-1.4,2-4.3,2-9.7
		C417,101.6,416.7,98.7,415,97.3z"/>
	<linearGradient id="SVGID_2_" gradientUnits="userSpaceOnUse" x1="381" y1="154" x2="381" y2="118">
		<stop  offset="0" style="stop-color:#AC5BAA"/>
		<stop  offset="1" style="stop-color:#6B3291"/>
	</linearGradient>
	<path class="st2" d="M381,118h-24v33.5c0,1.4,1.3,2.5,3,2.5s3-1.1,3-2.5V141v-10h8v7.5c0,1.4,1.3,2.5,3,2.5s3-1.1,3-2.5V131h4h4
		v7.5c0,1.4,1.3,2.5,3,2.5s3-1.1,3-2.5V131h8v10v10.5c0,1.4,1.3,2.5,3,2.5s3-1.1,3-2.5V118H381z"/>
	<linearGradient id="SVGID_3_" gradientUnits="userSpaceOnUse" x1="343" y1="122" x2="343" y2="94.3122">
		<stop  offset="0" style="stop-color:#66258D"/>
		<stop  offset="1" style="stop-color:#9A53A3"/>
	</linearGradient>
	<path class="st3" d="M343,93c-3.3,0-6,1.3-6,3v23c0,1.7,2.7,3,6,3s6-1.3,6-3V96C349,94.3,346.3,93,343,93z"/>
	<path class="st0" d="M259,21c-46.3,0-61.7,34.2-63.8,75c11.1,0,22,0.1,32.7,0.1C228.3,79.5,232,49,259,49s30.8,30.6,31.1,47.1
		c0.1,4.9-0.1,8.6-0.1,9.9c0,1.5,0.2,6,0,11.9c-0.6,16.9-5.1,45.1-31,45.1s-30.4-28.2-31-45.1c-10.6,0-21.5,0-32.6,0.1
		c2.5,39.9,18.1,73,63.6,73c45.6,0,61.2-33.2,63.7-73.1c0.2-3.9,0.3-7.9,0.3-11.9c0-3.3-0.1-6.6-0.2-9.9C320.7,55.3,305.3,21,259,21
		z"/>
</g>
</svg>
