<?xml version="1.0" encoding="utf-8"?>
<!-- Generator: Adobe Illustrator 23.0.1, SVG Export Plug-In . SVG Version: 6.00 Build 0)  -->
<svg version="1.1" id="Layer_1" xmlns="http://www.w3.org/2000/svg" xmlns:xlink="http://www.w3.org/1999/xlink" x="0px" y="0px"
	 viewBox="0 0 498 218" style="enable-background:new 0 0 498 218;" xml:space="preserve">
<style type="text/css">
	.st0{fill:url(#SVGID_1_);}
	.st1{fill:url(#SVGID_2_);}
	.st2{fill:url(#SVGID_3_);}
	.st3{fill:#FFFFFF;}
	.st4{fill:url(#SVGID_4_);}
	.st5{fill:url(#SVGID_5_);}
	.st6{fill:url(#SVGID_6_);}
	.st7{display:none;fill:url(#SVGID_7_);}
	.st8{fill:url(#SVGID_8_);}
	.st9{fill:url(#SVGID_9_);}
	.st10{fill:url(#SVGID_10_);}
	.st11{fill:url(#SVGID_11_);}
	.st12{fill:url(#SVGID_12_);}
	.st13{fill:url(#SVGID_13_);}
</style>
<linearGradient id="SVGID_1_" gradientUnits="userSpaceOnUse" x1="226.5328" y1="111" x2="482.6282" y2="111" gradientTransform="matrix(-1 0 0 1 565.1 -4)">
	<stop  offset="0" style="stop-color:#A35AA3"/>
	<stop  offset="1.845330e-02" style="stop-color:#A159A2"/>
	<stop  offset="0.5477" style="stop-color:#743494"/>
	<stop  offset="0.8147" style="stop-color:#63268E"/>
	<stop  offset="1" style="stop-color:#A35AA3"/>
</linearGradient>
<path class="st0" d="M88.6,113.2c1.2,0.9,3,0.8,3.7,0.8c0,0,10.2,0,28,0c9.9,0,22.2,0,36.4,0h34.7c3.9,0,8,0,12.1,0v-13.8
	c-4,0-8,0-11.9,0l-34.6-0.1c-4,0-7.9,0-11.6,0c-32.9,0-53.2-0.1-53.2-0.1c-0.7,0-2.5-0.1-3.7,0.8S87,103.5,87,107
	C87.1,110.4,87.3,112.3,88.6,113.2z"/>
<g>
	
		<linearGradient id="SVGID_2_" gradientUnits="userSpaceOnUse" x1="76.5388" y1="110.9988" x2="439.5606" y2="110.9988" gradientTransform="matrix(1 0 0 -1 0 218)">
		<stop  offset="0" style="stop-color:#A35AA3"/>
		<stop  offset="1.845330e-02" style="stop-color:#A159A2"/>
		<stop  offset="0.5477" style="stop-color:#743494"/>
		<stop  offset="0.8147" style="stop-color:#63268E"/>
		<stop  offset="1" style="stop-color:#A35AA3"/>
	</linearGradient>
	<path class="st1" d="M268.1,100.1v13.8c5.7,0,11.3,0,16.8,0l1.2,0c0-3.9-0.1-6.8-0.1-7.9c0-0.9,0.1-3,0.1-5.9h-0.9
		C279.6,100.1,273.9,100.1,268.1,100.1z"/>
	
		<linearGradient id="SVGID_3_" gradientUnits="userSpaceOnUse" x1="76.5388" y1="110.95" x2="439.5606" y2="110.95" gradientTransform="matrix(1 0 0 -1 0 218)">
		<stop  offset="0" style="stop-color:#A35AA3"/>
		<stop  offset="1.845330e-02" style="stop-color:#A159A2"/>
		<stop  offset="0.5477" style="stop-color:#743494"/>
		<stop  offset="0.8147" style="stop-color:#63268E"/>
		<stop  offset="1" style="stop-color:#A35AA3"/>
	</linearGradient>
	<path class="st2" d="M334.4,100.1h-15.3c0.3,5.5,0.2,10.2-0.1,13.9l14.9,0c5.6,0,11,0,16.2,0l9.3-13.9
		C351.5,100.1,343.2,100.1,334.4,100.1z"/>
	<path class="st3" d="M319.1,100.1c-0.1-1.3-0.2-2.6-0.3-4c-1.4-16.8-4-47.6-26.3-64.3c-4.6-3.4-16.6-11.2-37.3-10.8h-0.1H255
		c-46.3,0-61.7,34.2-63.8,75c0.1,0,0.1,0,0.2,0v0.1c-0.1,3.3-0.2,6.6-0.2,9.9c0,4,0.1,8,0.3,11.9v0.1h-0.1c2.5,39.9,18.1,73,63.6,73
		h0.1h0.1c20.4,0.3,32.4-7.2,37.2-10.8c22-16.3,24.8-46.1,26.3-62.3c0.1-1.1,0.2-2.4,0.3-3.9C319.2,110.3,319.3,105.6,319.1,100.1z
		 M286,117.9c-0.6,16.9-5.1,45-30.9,45.1c-25.8-0.1-30.3-28.2-30.9-45.1c-0.2-5.9,0-10.4,0-11.9c0-1.3-0.2-5-0.1-9.9
		c0.3-16.5,4.1-47,31-47.1c26.9,0.1,30.7,30.6,31,47.1c0,1.5,0,2.8,0,4c0,2.9-0.1,5-0.1,5.9c0,1.1,0.1,4,0.1,7.9
		C286.1,115.1,286,116.5,286,117.9z"/>
</g>
<g>
	
		<linearGradient id="SVGID_4_" gradientUnits="userSpaceOnUse" x1="237.9944" y1="111.5" x2="243.75" y2="111.5" gradientTransform="matrix(-1 0 0 -1 421.7444 218)">
		<stop  offset="0" style="stop-color:#550074"/>
		<stop  offset="1" style="stop-color:#8C479C"/>
	</linearGradient>
	<path class="st4" d="M179.9,93.5h3.8v26h-3.8c-1.1,0-1.9-0.8-1.9-1.8V95.3C178,94.3,178.9,93.5,179.9,93.5z"/>
	
		<linearGradient id="SVGID_5_" gradientUnits="userSpaceOnUse" x1="194.3" y1="95.6484" x2="194.3" y2="127.3484" gradientTransform="matrix(1 0 0 -1 0 218)">
		<stop  offset="0" style="stop-color:#723293"/>
		<stop  offset="6.171196e-02" style="stop-color:#7B3A95"/>
		<stop  offset="0.2989" style="stop-color:#9A559E"/>
		<stop  offset="0.5681" style="stop-color:#7B2F8B"/>
		<stop  offset="0.8478" style="stop-color:#5F0D7A"/>
		<stop  offset="1" style="stop-color:#550074"/>
	</linearGradient>
	<path class="st5" d="M185.4,90.6c-1.2,0-2.1,1-2.1,2.2v27.3c0,1.2,0.9,2.2,2.1,2.2h19.9V90.6H185.4z"/>
	
		<linearGradient id="SVGID_6_" gradientUnits="userSpaceOnUse" x1="205.3" y1="91.7798" x2="205.3" y2="131" gradientTransform="matrix(1 0 0 -1 0 218)">
		<stop  offset="0" style="stop-color:#8C479C"/>
		<stop  offset="1" style="stop-color:#550074"/>
	</linearGradient>
	<path class="st6" d="M205.3,87c-1,0.1-1.8,0.9-1.8,2v11v13.3v11c0,1,0.8,1.9,1.8,2c1-0.1,1.8-0.9,1.8-2v-11V100V89
		C207.1,87.9,206.3,87.1,205.3,87z"/>
</g>
<g>
	
		<linearGradient id="SVGID_7_" gradientUnits="userSpaceOnUse" x1="76.5388" y1="110.95" x2="439.5606" y2="110.95" gradientTransform="matrix(1 0 0 -1 0 218)">
		<stop  offset="0" style="stop-color:#A35AA3"/>
		<stop  offset="1.845330e-02" style="stop-color:#A159A2"/>
		<stop  offset="0.5477" style="stop-color:#743494"/>
		<stop  offset="0.8147" style="stop-color:#63268E"/>
		<stop  offset="1" style="stop-color:#A35AA3"/>
	</linearGradient>
	<path class="st7" d="M334.4,100.1h-49.2c-5.6,0-11.3,0-17.1,0v13.8c5.7,0,11.3,0,16.8,0l49,0.1c5.6,0,11,0,16.2,0l9.3-13.9
		C351.5,100.1,343.2,100.1,334.4,100.1z"/>
	<path class="st3" d="M463.8,123H450v-18.6V73.1V51.5V24h-40l-50.7,76.1L350,114l-10,15v18h50h12.5H420v37h30v-37h15.4v-24H463.8z
		 M420,123h-10.8H390h-18l6-9.1l9.3-13.9l1.3-1.9l28.5-42.7l2.3-3.5L420,51v3v20.8V100v4.4v9.6V123z"/>
	
		<linearGradient id="SVGID_8_" gradientUnits="userSpaceOnUse" x1="385.2039" y1="111.05" x2="433.7046" y2="111.05" gradientTransform="matrix(1 0 0 -1 0 218)">
		<stop  offset="0.1679" style="stop-color:#63268E"/>
		<stop  offset="1" style="stop-color:#A35AA3"/>
	</linearGradient>
	<path class="st8" d="M430.9,100.8c-1.7-0.9-4.2-0.8-5.3-0.8c0,0-1.9,0-5.6,0c-6.2,0-17.4,0-32.7,0l-9.3,13.9c20.1,0,34.5,0,42,0
		c3.7,0,5.6,0,5.6,0c1.1,0,3.6,0.1,5.3-0.8c1.7-0.9,2.1-2.7,2.1-6.2C433,103.6,432.7,101.7,430.9,100.8z"/>
</g>
<g>
	
		<linearGradient id="SVGID_9_" gradientUnits="userSpaceOnUse" x1="227.625" y1="119.5" x2="249.325" y2="119.5" gradientTransform="matrix(1 0 0 -1 0 218)">
		<stop  offset="0" style="stop-color:#8C479C"/>
		<stop  offset="1" style="stop-color:#550074"/>
	</linearGradient>
	<path class="st9" d="M229.1,100.3h18.7c0.8,0,1.5-0.8,1.5-1.8c-0.1-1-0.7-1.8-1.5-1.8h-18.7c-0.8,0-1.5,0.8-1.5,1.8
		C227.7,99.5,228.3,100.3,229.1,100.3z"/>
	
		<linearGradient id="SVGID_10_" gradientUnits="userSpaceOnUse" x1="227.625" y1="103.5" x2="249.325" y2="103.5" gradientTransform="matrix(1 0 0 -1 0 218)">
		<stop  offset="0" style="stop-color:#8C479C"/>
		<stop  offset="1" style="stop-color:#550074"/>
	</linearGradient>
	<path class="st10" d="M247.8,112.7h-18.7c-0.8,0-1.5,0.8-1.5,1.8c0.1,1,0.7,1.8,1.5,1.8h18.7c0.8,0,1.5-0.8,1.5-1.8
		S248.6,112.7,247.8,112.7z"/>
	
		<linearGradient id="SVGID_11_" gradientUnits="userSpaceOnUse" x1="263" y1="111.5" x2="268.7556" y2="111.5" gradientTransform="matrix(1 0 0 -1 0 218)">
		<stop  offset="0" style="stop-color:#550074"/>
		<stop  offset="1" style="stop-color:#8C479C"/>
	</linearGradient>
	<path class="st11" d="M266.8,93.5H263v26h3.8c1.1,0,1.9-0.8,1.9-1.8V95.3C268.8,94.3,267.9,93.5,266.8,93.5z"/>
	
		<linearGradient id="SVGID_12_" gradientUnits="userSpaceOnUse" x1="252" y1="95.6484" x2="252" y2="127.3484" gradientTransform="matrix(1 0 0 -1 0 218)">
		<stop  offset="0" style="stop-color:#723293"/>
		<stop  offset="0.2557" style="stop-color:#753594"/>
		<stop  offset="0.4399" style="stop-color:#7E3D96"/>
		<stop  offset="0.6013" style="stop-color:#8E4A9B"/>
		<stop  offset="0.7263" style="stop-color:#A05AA0"/>
		<stop  offset="1" style="stop-color:#6E3596"/>
	</linearGradient>
	<path class="st12" d="M243.1,90.6c-1.2,0-2.1,1-2.1,2.2v27.3c0,1.2,0.9,2.2,2.1,2.2H263v-2.8v-26v-2.8L243.1,90.6L243.1,90.6z"/>
	
		<linearGradient id="SVGID_13_" gradientUnits="userSpaceOnUse" x1="262.3" y1="91.7798" x2="262.3" y2="131" gradientTransform="matrix(1 0 0 -1 0 218)">
		<stop  offset="0" style="stop-color:#8C479C"/>
		<stop  offset="1" style="stop-color:#550074"/>
	</linearGradient>
	<path class="st13" d="M262.3,87c-1,0.1-1.8,0.9-1.8,2v11v13.3v11c0,1,0.8,1.9,1.8,2c1-0.1,1.8-0.9,1.8-2v-11V100V89
		C264.1,87.9,263.3,87.1,262.3,87z"/>
</g>
<path id="_x34__1_" class="st3" d="M157.4,123h-1.6H142v-18.6V73.1V51.5V24h-40L32,129v18h50h12.5H112v37h30v-37h15.4V123z M82,123
	H64l16.6-24.9l28.5-42.7l2.3-3.5L112,51v3v20.8v29.6V123h-10.8H82z"/>
</svg>
