<?xml version="1.0" encoding="utf-8"?>
<!-- Generator: Adobe Illustrator 23.0.1, SVG Export Plug-In . SVG Version: 6.00 Build 0)  -->
<svg version="1.1" id="Layer_1" xmlns="http://www.w3.org/2000/svg" xmlns:xlink="http://www.w3.org/1999/xlink" x="0px" y="0px"
	 viewBox="0 0 498 218" style="enable-background:new 0 0 498 218;" xml:space="preserve">
<style type="text/css">
	.st0{fill:#FFFFFF;}
</style>
<path id="_x35_" class="st0" d="M40.6,176c2.5-10.3,4.7-19.1,6.6-26.5c13.8,1.9,26.8,4.5,39.9,5.1c6.4,0.4,13.6-1.8,19.4-4.9
	c16.2-8.3,16.3-30.1,0-37.9c-8.7-4.1-19-5.5-28.7-6.6c-8.9-1.1-18.2-0.2-28.3-0.2c3.4-26.2,7-53.5,10.7-81c30.2,0,60.3,0,90.9,0
	c0,9.5,0,19.3,0,29.8c-20.9,0-42.1,0-63.6,0C86.3,61.9,85.1,69.4,84,77c10.2,0.9,20.1,1,29.7,2.6c25.1,4.3,41.3,19.7,44.1,40.9
	c2.9,22.7-7.6,42.5-28.9,53.8c-20.1,10.7-41.8,11.4-63.7,7.7C57.1,180.8,49.2,178.3,40.6,176z"/>
<path id="_x30__1_" class="st0" d="M475.1,100.1c-0.1-1.3-0.2-2.6-0.3-4c-1.4-16.8-4-47.6-26.3-64.3c-4.6-3.4-16.6-11.2-37.3-10.8
	h-0.1H411c-20.5-0.3-32.3,7.1-37.3,10.8C350.1,49.5,348.2,84,347.3,101c-0.4,7-0.2,12.8,0.1,16.9c2.5,39.9,18.1,73,63.6,73h0.1h0.1
	c20.4,0.3,32.4-7.2,37.2-10.8c22-16.3,24.8-46.1,26.3-62.3c0.1-1.1,0.2-2.4,0.3-3.9C475.2,110.3,475.3,105.6,475.1,100.1z
	 M442,117.9c-0.6,16.9-5.1,45-30.9,45.1c-25.8-0.1-30.3-28.2-30.9-45.1c-0.2-5.9,0-10.4,0-11.9c0-1.3-0.2-5-0.1-9.9
	c0.3-16.5,4.1-47,31-47.1c26.9,0.1,30.7,30.6,31,47.1c0,1.5,0,2.8,0,4c0,2.9-0.1,5-0.1,5.9c0,1.1,0.1,4,0.1,7.9
	C442.1,115.1,442,116.5,442,117.9z"/>
<g id="_x30_-">
	<path class="st0" d="M193.7,102.1c10,2.2,18.4,4.1,25.5,5.7c0-0.8,0-1.4,0-1.8c0-1.3-0.2-5-0.1-9.9c0.3-16.5,4.1-47,31-47.1
		c19.1,0.1,26.5,15.4,29.4,30.2c4.4-3.2,9.5-6.8,15.3-11c-3.7-3.1-7.3-6.2-11-9.3c6.3-3,12.7-6.1,19-9.1
		c-3.6-6.8-8.6-13.1-15.3-18.1c-4.6-3.4-16.6-11.2-37.3-10.8h-0.1H250c-20.5-0.3-32.3,7.1-37.3,10.8C189.1,49.5,187.2,84,186.3,101
		c-0.2,4.6-0.2,8.6-0.1,12.1c3.2,0.4,6.4,0.8,9.6,1.2C195,110.2,194.4,106.2,193.7,102.1z"/>
	<path class="st0" d="M313.8,96.1c-0.9-11.1-2.4-28.4-9.7-43.6c-3.5,2.8-7,5.5-10.6,8.3c3.3,2.4,6.7,4.8,10,7.2
		c-9.3,6-17.1,10.9-23.5,14.9c0.7,4.8,1,9.4,1,13.2c0,1.5,0,2.8,0,4c0,2.9-0.1,5-0.1,5.9c0,1.1,0.1,4,0.1,7.9c0,1.2-0.1,2.6-0.1,4
		c-0.6,16.9-5.1,45-30.9,45.1c-25.8-0.1-30.3-28.2-30.9-45.1c-0.1-2.5-0.1-4.8-0.1-6.7c-5.4-0.9-11.8-1.9-19-3.1
		c0.4,4.8,0.8,9.5,1.2,14.3c-5-1.8-10-3.5-15-5.3c0,0.3,0,0.6,0.1,0.9c2.5,39.9,18.1,73,63.6,73h0.1h0.1
		c20.4,0.3,32.4-7.2,37.2-10.8c22-16.3,24.8-46.1,26.3-62.3c0.1-1.1,0.2-2.4,0.3-3.9c0.2-3.7,0.3-8.4,0.1-13.9
		C314,98.8,313.9,97.5,313.8,96.1z"/>
</g>
</svg>
