<?xml version="1.0" encoding="utf-8"?>
<!-- Generator: Adobe Illustrator 23.0.1, SVG Export Plug-In . SVG Version: 6.00 Build 0)  -->
<svg version="1.1" xmlns="http://www.w3.org/2000/svg" xmlns:xlink="http://www.w3.org/1999/xlink" x="0px" y="0px"
	 viewBox="0 0 829 831" style="enable-background:new 0 0 829 831;" xml:space="preserve">
<style type="text/css">
	.st0{fill:url(#SVGID_1_);}
	.st1{fill:url(#SVGID_2_);}
	.st2{fill:url(#SVGID_3_);}
	.st3{opacity:0.4;}
	.st4{fill:url(#SVGID_4_);}
	.st5{fill:url(#SVGID_5_);}
</style>
<g id="Layer_3">
</g>
<g id="Layer_2">
	<g>
		<linearGradient id="SVGID_1_" gradientUnits="userSpaceOnUse" x1="120.9853" y1="109.9373" x2="808.3463" y2="556.3147">
			<stop  offset="0" style="stop-color:#35C3E9"/>
			<stop  offset="0.142" style="stop-color:#33BAE1"/>
			<stop  offset="0.3781" style="stop-color:#2DA0CC"/>
			<stop  offset="0.6793" style="stop-color:#2477AB"/>
			<stop  offset="0.9944" style="stop-color:#184481"/>
		</linearGradient>
		<path class="st0" d="M622,219c-3.02,1.34-7.91,3.48-14,6c-14.69,6.08-19.19,7.28-24,12c-0.21,0.2-0.42,0.42-0.64,0.65
			C638.48,257.05,694.2,279.95,742,306c37.08,20.21,73,43,73,43c4.25,2.7,8.35,5.34,12.33,7.92C799.08,155.57,626.14,0.64,417,0.64
			c-163.12,0-304.22,94.26-371.82,231.28c-0.06,0.36-0.12,0.73-0.18,1.09c-0.95,16.44-0.91,39.76,4,67
			c3.36,18.64,12.45,58.28,48,115c12.08,19.27,52.62,81.07,130,142c86.99,68.5,169.26,95.52,190,102
			c45.26,14.14,111.43,34.06,196,23c38-4.97,104.05-14.51,152-65c9.82-10.34,27.97-29.91,36-61c10.56-40.89-3.1-75.6-9-90
			c-11.01-26.86-25.92-42.5-55-73c-8.15-8.54-30.77-31.61-64-56c-18.04-13.24-34.37-23.33-63-41c-16.39-10.12-30.21-18.3-40-24
			c5.33,8.67,10.67,17.33,16,26c-4,1.33-8,2.67-12,4c-10.78-5.63-24.06-14.16-37-27c-5.49-5.45-10.12-10.88-14-16
			c-2.48,0.01-8.02,0.03-15,0c0,0-54.32-0.27-148.41-18.49L430,338h-40c-45.32-40.67-90.63-81.34-135.95-122
			c-34.23-9.22-71.35-20.4-111.05-34c-4.89-1.67-15.89-5.6-18-14c-1.28-5.09,1.15-10.04,3-13c3.3-0.9,8.24-2.44,14-5
			c4.39-1.95,7.44-3.69,8-4c5.46-3.01,19.26-5.02,54-2c47.59,6.94,85.75,14.14,110,19c0,0,10.81,2.17,29.43,6.38
			c3.51-0.8,7.02-1.59,10.57-2.38c46.44-10.28,90.6-18.08,132-24c3.67,3.33,7.33,6.67,11,10c-11.64,4.41-23.67,9.39-36,15
			c-14.29,6.51-27.75,13.31-40.39,20.25c21.31,5.59,44.83,12.06,69.62,19.39c24.2-11.51,50.07-25.51,76.77-42.65
			c17.05-10.95,32.7-22.05,47-33c1.2-0.87,4-2.66,8-3c3.16-0.27,5.66,0.48,7,1c6.28,3.55,12.56,7.1,18.84,10.65
			c0.15,0.15,1.4,1.43,1.16,3.35c-0.24,1.96-1.83,2.9-2,3c-6.81,6.5-13.89,13.81-21,22c-11.8,13.59-21.33,26.87-29,39
			c10.67-0.67,21.33-1.33,32-2c0.06,1.33,0.02,4.6-2,8C625.34,216.79,623.14,218.32,622,219z"/>
		<linearGradient id="SVGID_2_" gradientUnits="userSpaceOnUse" x1="-61.2391" y1="422.9401" x2="579.658" y2="839.1436">
			<stop  offset="0" style="stop-color:#35C3E9"/>
			<stop  offset="0.142" style="stop-color:#33BAE1"/>
			<stop  offset="0.3781" style="stop-color:#2DA0CC"/>
			<stop  offset="0.6793" style="stop-color:#2477AB"/>
			<stop  offset="0.9944" style="stop-color:#184481"/>
		</linearGradient>
		<path class="st1" d="M543,772c-20.05-2.74-47.74-8.01-80-19c-21.68-7.39-79.62-27.31-149-70c-24.7-15.2-95.86-60.93-165-137
			c-34.94-38.44-55.5-69.39-63-81c-11.87-18.38-25.93-40.25-39-71c-10.91-25.67-24.42-58.31-28.02-94.58
			C8.34,336.1,2.64,374.88,2.64,415c0,228.85,185.52,414.36,414.36,414.36c74.06,0,143.57-19.43,203.73-53.47
			c-2.58,0.04-5.16,0.08-7.73,0.1C590.43,776.22,568.92,775.55,543,772z"/>
	</g>
	<radialGradient id="SVGID_3_" cx="189.1055" cy="125.0693" r="182.1684" gradientUnits="userSpaceOnUse">
		<stop  offset="0" style="stop-color:#8FE5FB;stop-opacity:0.8"/>
		<stop  offset="0.0573" style="stop-color:#8FE5FB;stop-opacity:0.7542"/>
		<stop  offset="1" style="stop-color:#8FE5FB;stop-opacity:0"/>
	</radialGradient>
	<path class="st2" d="M320.99,276.07c-22.31-20.02-44.62-40.05-66.94-60.07c-34.23-9.22-71.35-20.4-111.05-34
		c-4.89-1.67-15.89-5.6-18-14c-1.28-5.09,1.15-10.04,3-13c3.3-0.9,8.24-2.44,14-5c4.39-1.95,7.44-3.69,8-4
		c5.46-3.01,19.26-5.02,54-2c47.59,6.94,85.75,14.14,110,19c0,0,10.81,2.17,29.43,6.38c3.51-0.8,7.02-1.59,10.57-2.38
		c13.85-3.06,27.49-5.91,40.92-8.55C405.34,127.88,411,95.1,411,61c0-20.61-2.07-40.73-6-60.18
		C246.98,5.32,111.12,98.27,45.18,231.91c-0.06,0.36-0.12,0.73-0.18,1.09c-0.95,16.44-0.91,39.76,4,67
		c2.14,11.88,6.62,32.28,18.77,60.19C81.25,362.03,95.01,363,109,363C191.61,363,266.46,329.82,320.99,276.07z"/>
	<g class="st3">
		<linearGradient id="SVGID_4_" gradientUnits="userSpaceOnUse" x1="241.1344" y1="421.7958" x2="807.436" y2="521.65">
			<stop  offset="0" style="stop-color:#184481;stop-opacity:0.3"/>
			<stop  offset="0.9944" style="stop-color:#184481"/>
		</linearGradient>
		<path class="st4" d="M765,617c9.82-10.34,27.97-29.91,36-61c10.56-40.89-3.1-75.6-9-90c-11.01-26.86-25.92-42.5-55-73
			c-8.15-8.54-30.77-31.61-64-56c-18.04-13.24-34.37-23.33-63-41c-16.39-10.12-30.21-18.3-40-24c5.33,8.67,10.67,17.33,16,26
			c-4,1.33-8,2.67-12,4c-10.78-5.63-24.06-14.16-37-27c-5.49-5.45-10.12-10.88-14-16c-2.48,0.01-8.02,0.03-15,0
			c0,0-54.32-0.27-148.41-18.49L430,338h-40c-38.27-34.35-76.54-68.69-114.81-103.04C262.26,286.56,258.8,340.4,266,394
			c13.54,100.83,63.63,192.22,137.86,260.68c5.61,1.94,10.06,3.36,13.14,4.32c45.26,14.14,111.43,34.06,196,23
			C651,677.03,717.05,667.49,765,617z"/>
		<linearGradient id="SVGID_5_" gradientUnits="userSpaceOnUse" x1="308.2028" y1="120.201" x2="852.1541" y2="216.1143">
			<stop  offset="0" style="stop-color:#184481;stop-opacity:0.3"/>
			<stop  offset="0.9944" style="stop-color:#184481"/>
		</linearGradient>
		<path class="st5" d="M420.42,0.68c-51.75,44.94-92.26,99.74-119.32,159.78c4.65,0.9,8.96,1.75,12.9,2.54
			c0,0,10.81,2.17,29.43,6.38c3.51-0.8,7.02-1.59,10.57-2.38c46.44-10.28,90.6-18.08,132-24c3.67,3.33,7.33,6.67,11,10
			c-11.64,4.41-23.67,9.39-36,15c-14.29,6.51-27.75,13.31-40.39,20.25c21.31,5.59,44.83,12.06,69.62,19.39
			c24.2-11.51,50.07-25.51,76.77-42.65c17.05-10.95,32.7-22.05,47-33c1.2-0.87,4-2.66,8-3c3.16-0.27,5.66,0.48,7,1
			c6.28,3.55,12.56,7.1,18.84,10.65c0.15,0.15,1.4,1.43,1.16,3.35c-0.24,1.96-1.83,2.9-2,3c-6.81,6.5-13.89,13.81-21,22
			c-11.8,13.59-21.33,26.87-29,39c10.67-0.67,21.33-1.33,32-2c0.06,1.33,0.02,4.6-2,8c-1.66,2.79-3.86,4.32-5,5
			c-3.02,1.34-7.91,3.48-14,6c-14.69,6.08-19.19,7.28-24,12c-0.21,0.2-0.42,0.42-0.64,0.65C638.48,257.05,694.2,279.95,742,306
			c37.08,20.21,73,43,73,43c4.25,2.7,8.35,5.34,12.33,7.92C799.24,156.67,628.02,2.36,420.42,0.68z"/>
	</g>
</g>
</svg>
