<?xml version="1.0" encoding="iso-8859-1"?>
<!-- Generator: Adobe Illustrator 23.0.1, SVG Export Plug-In . SVG Version: 6.00 Build 0)  -->
<svg version="1.1" id="Layer_1" xmlns="http://www.w3.org/2000/svg" xmlns:xlink="http://www.w3.org/1999/xlink" x="0px" y="0px"
	 viewBox="0 0 2000 380" style="enable-background:new 0 0 2000 380;" xml:space="preserve">
<defs>
<filter id="f1" x="0" y="0" width="200%" height="200%">
  <feOffset result="offOut" in="SourceGraphic" dx="0" dy="-3" />
  <feColorMatrix result = "matrixOut" in = "offOut" type = "matrix" values = "0.1 0 0 0 0 0 0.1 0 0 0 0 0 0.2 0 0 0 0 0 .5 0"/>
  <feGaussianBlur result="blurOut" in="matrixOut" stdDeviation="5" />
  <feBlend in="SourceGraphic" in2="blurOut" mode="normal" />
</filter>    
</defs>
<g>
	<path fill="#ffffff" filter="url(#f1)" d="M1999.5,379.5V0.5c-13.1,1.9-56.9,9.7-93,48c-39.3,41.6-42.5,90.6-43,103c-6.8-3-42.4-17.8-83-2
		c-35.6,13.9-51.9,42.3-56,50c-2.9-2.6-43.5-38.1-97-24c-49.2,13-68,57.1-70,62c-13.7,5-27.3,10-41,15c-1.1-2.3-16.9-32.9-51-37
		c-26.3-3.2-52.6,10.7-66,35c-8-3-55-19.6-105,5c-44.6,21.9-61.3,61.6-65,71c-5.2-2.9-27-14.3-55-8c-26.6,6-41.2,24-45,29
		c-3.5-3.2-37.6-33.4-85-24c-44.2,8.8-64.4,45.1-67,50c-0.9-1.3-13.4-17.9-35-17c-22.3,1-33.4,19.9-34,21c-3.6-3.6-21.8-21.4-51-22
		c-29.3-0.6-48.3,16.5-52,20c-1.1-3.9-8.3-27.7-33-40c-27.7-13.8-53.9-1.5-57,0c-1.7-6.3-14.2-49.8-59-71c-48.2-22.9-92.9-0.6-98,2
		c-3-25.4-22.3-45.8-47-50c-23.3-4-46.9,7.2-59,28c-3.3-0.7-6.7-1.3-10-2c-0.6-3-10.9-48.9-56-66c-46.9-17.8-86.2,12.6-88,14
		c2.2-46.9-24.6-90.4-67-109c-44.4-19.5-97.2-7.9-130,29c-11.9-7.3-29.4-16.2-52-22c-19.7-5.1-37.1-6.2-50-6v297H1999.5z"/>
</g>
</svg>
