<?xml version="1.0" encoding="utf-8"?>
<!-- Generator: Adobe Illustrator 23.0.1, SVG Export Plug-In . SVG Version: 6.00 Build 0)  -->
<svg version="1.1" id="Layer_1" xmlns="http://www.w3.org/2000/svg" xmlns:xlink="http://www.w3.org/1999/xlink" x="0px" y="0px"
	 viewBox="0 0 850 340" style="enable-background:new 0 0 850 340;" xml:space="preserve">
	<g fill="#ffffff">
		<path d="M656.6,164.7c-0.2,18.1-2.6,33.6-10,48c-17.4,33.9-49.6,48.2-86.8,44.9c-41.5-3.7-73.7-36.4-74.8-83.9
			c-0.4-17.3,1.8-34.3,9.6-49.9c14-28,36.9-43.4,68-46.3c36.4-3.4,67,10.2,84.1,43C654.2,134.9,656.5,150.7,656.6,164.7z
			 M526.6,169.5c0,9.5,1.4,20.3,6.5,30.4c8.3,16.4,21.6,25,40.2,24c18-0.9,30.4-10.3,36.7-26.9c7.6-20.3,7.2-40.9-1-60.9
			c-6-14.9-17.4-23.8-33.8-24.9c-16.8-1.2-30.2,5.1-39.4,19.5C528.7,142.1,526.6,154.7,526.6,169.5z"/>
		<path d="M317,255c-15,0-29-0.1-43,0.1c-2.6,0-3.4-1.4-4.4-3.2c-8.6-14.2-17.2-28.5-25.8-42.7c-2.1-3.4-4.4-6.6-6.6-10
			c-6-9.3-14.6-12.5-25.3-11.3c-3.4,0.4-2.5,2.4-2.5,4.2c0,19,0,38,0,57c0,1-0.1,2,0,3c0.4,2.6-0.9,3-3.2,3c-11-0.1-22-0.1-33,0
			c-2.6,0-3.4-0.7-3.3-3.3c0.2-6.5,0.1-13,0.1-19.5c0-49.2,0-98.3-0.1-147.5c0-3.8,0.7-5,4.8-4.9c20.2,0.2,40.3,0.1,60.5,0.1
			c12.1,0,24,1.5,35.2,6.2c26.2,11.1,34.5,46,16.8,70.1c-7.5,10.2-17.9,16.1-30.3,20.1c10.2,4.5,17,12.2,22.7,20.8
			C292.1,216.1,304.2,235.1,317,255z M209.4,133.5c0,5.7,0,11.3,0,17c0,8.6,0,8.6,8.5,8.6c6.8,0,13.6,0.5,20.2-2
			c10.9-4.1,17.7-15.1,16.6-26.8c-1.2-12.5-7.2-18.9-20.8-20.6c-7.2-0.9-14.6-0.3-21.9-0.6c-2.9-0.1-2.6,1.7-2.6,3.5
			C209.4,119.5,209.4,126.5,209.4,133.5z"/>
		<path d="M420,176.5c9.1,3.8,15.2,10.2,20.3,17.4c13.9,19.5,25.9,40.2,39.7,61c-3.9,0-6.9,0-10,0c-10.5,0-21-0.1-31.5,0.1
			c-3.1,0.1-4.7-1-6.2-3.6c-8.7-14.7-17.6-29.4-26.5-44c-2.3-3.8-5.1-7.4-7.7-11c-5.9-8.3-14.5-9.1-23.6-8.5c-3.2,0.2-2,2.6-2,4.1
			c-0.1,18.8,0,37.7,0,56.5c0,6.4,0,6.4-6.6,6.4c-9.8,0-19.7-0.1-29.5,0.1c-2.6,0-3.3-0.7-3.3-3.3c0.1-56.2,0.1-112.3,0-168.5
			c0-2-0.1-3.4,2.7-3.4c25.5,0.6,51-1.1,76.4,1c6.5,0.5,12.8,2,18.9,4.3c28.2,10.6,37.5,46.4,18.8,71.5
			C443.4,165.4,436.4,170.1,420,176.5z M372.4,133.8c0,7.3,0,14.6,0,21.9c0,1.4-0.6,3.3,1.9,3.2c8.9-0.3,18,1.2,26.7-1.9
			c10.9-4,17.8-14.9,16.7-26.7c-1.1-12.5-7.2-18.8-20.6-20.9c-7.4-1.1-14.9-0.2-22.4-0.5c-2.7-0.1-2.3,1.8-2.3,3.4
			C372.4,119.5,372.4,126.7,372.4,133.8z"/>
		<path d="M772.8,176.4c10,4.3,16.7,11.6,22.1,19.8c12.6,19,24.8,38.3,37.1,57.4c0.1,0.2,0,0.6,0.1,1.4c-14.3,0-28.5,0-42.8,0
			c-2.5,0-2.9-2-3.7-3.4c-8.8-14.5-17.6-29-26.4-43.5c-2.3-3.7-4.8-7.2-7.3-10.7c-5.9-8.6-14.6-10.3-24.2-9.4
			c-3.5,0.3-2.2,2.8-2.2,4.4c-0.1,19.3-0.1,38.7,0,58c0,3.6-0.6,4.9-4.5,4.7c-10.3-0.3-20.7-0.2-31-0.1c-2.7,0-4.1-0.2-4.1-3.6
			c0.1-56,0.1-112,0.1-168c0-2.2-0.1-3.7,3-3.6c25.5,0.7,51-1.1,76.4,1.1c7.3,0.6,14.4,2.6,21.2,5.3C818,98.9,817,138.7,803,156.6
			C795.3,166.5,785.2,172.4,772.8,176.4z M725.4,133.9c0,7.3,0,14.6,0,21.9c0,1.4-0.5,3.2,2,3.1c8.7-0.4,17.6,1.2,26.2-1.9
			c11.2-4,18.2-14.9,17.1-26.9c-1.1-12.5-7.2-18.9-20.7-20.7c-6.9-0.9-13.9-0.2-20.9-0.6c-3.3-0.2-3.8,1.2-3.7,4
			C725.5,120,725.4,127,725.4,133.9z"/>
		<path d="M37,167.1c0-27.5,0.1-55-0.1-82.5c0-3.5,0.5-4.7,4.5-4.7c30.7,0.2,61.3,0.2,92,0c3.5,0,4.9,0.5,4.7,4.5
			c-0.4,7.8-0.3,15.7,0,23.5c0.1,3.7-1.1,4.3-4.5,4.2c-17.5-0.2-35,0.1-52.5-0.2c-4.1-0.1-4.9,1.2-4.8,5c0.3,10,0.2,20,0,30
			c-0.1,3.2,0.8,4.2,4.1,4.2c16.3-0.2,32.7,0,49-0.2c3.3,0,4.6,0.6,4.5,4.3c-0.3,7.8-0.3,15.7,0,23.5c0.1,3.5-0.8,4.5-4.3,4.4
			c-16.2-0.2-32.3,0-48.5-0.2c-3.6,0-4.9,0.6-4.8,4.5c0.3,10.5,0.2,21,0,31.5c-0.1,3.3,1,4.1,4.2,4.1c19-0.2,38,0,57-0.2
			c3.7,0,4.8,0.8,4.6,4.6c-0.3,8-0.2,16,0,24c0.1,2.8-0.7,3.6-3.5,3.6c-32.7-0.1-65.3-0.1-98,0c-3.4,0-3.6-1.3-3.6-4.1
			C37,223.1,37,195.1,37,167.1z"/>
	</g>
</svg>
