<?xml version="1.0" encoding="iso-8859-1"?>
<!-- Generator: Adobe Illustrator 19.0.0, SVG Export Plug-In . SVG Version: 6.00 Build 0)  -->
<svg version="1.1" id="Layer_1" xmlns="http://www.w3.org/2000/svg" xmlns:xlink="http://www.w3.org/1999/xlink" x="0px" y="0px"
	 viewBox="0 0 512 512" style="enable-background:new 0 0 512 512;" xml:space="preserve" fill="#bbbbbb">
<g>
	<g>
		<path d="M116.682,0v71.68h26.947v69.524h-31.798V86.232H1.886v324.985h109.945v-50.122h31.798V512h82.998h174.619h81.92V71.68
			h26.947V0H116.682z M95.663,395.048H18.055V102.4h77.608V395.048z M143.629,344.926h-31.798V157.373h31.798V344.926z
			 M264.722,404.211h-38.095h-1.791c3.954-25.545,26.114-51.528,57.468-62.25C272.264,358.001,265.937,381.112,264.722,404.211z
			 M313.129,336.842c13.63,0,30.074,30.305,32.218,67.368H280.91C283.053,367.147,299.5,336.842,313.129,336.842z M305.853,495.832
			h-63.057v-75.453h21.712h41.345V495.832z M385.078,495.832h-63.057v-75.453h39.728h23.329V495.832z M361.535,404.211
			c-1.214-23.098-7.542-46.209-17.582-62.25c31.354,10.722,53.514,36.703,57.468,62.25h-0.175H361.535z M466.998,433.853h-40.421
			v16.168h40.421v16.168h-40.421v16.168h40.421v13.474h-65.752v-75.453h16.977v-8.084c0-22.653-11.341-45.77-31.113-63.425
			c-20.364-18.182-46.637-28.196-73.981-28.196s-53.618,10.014-73.981,28.196c-19.773,17.656-31.113,40.772-31.113,63.425v8.084
			h18.594v75.453h-66.829v-13.474h40.96v-16.168h-40.96v-16.168h40.96v-16.168h-40.96V71.68h307.2V433.853z M493.945,55.512h-10.779
			H143.629h-10.779V16.168h361.095V55.512z"/>
	</g>
</g>
<g>
	<g>
		<rect x="333.339" y="451.638" width="16.168" height="16.168"/>
	</g>
</g>
<g>
	<g>
		<rect x="276.749" y="451.638" width="16.168" height="16.168"/>
	</g>
</g>
<g>
	<g>
		<path d="M176.505,86.77v99.705h80.842V86.77H176.505z M241.179,170.307h-48.505v-67.368h48.505V170.307z"/>
	</g>
</g>
<g>
	<g>
		<path d="M272.438,86.77v99.705h80.842V86.77H272.438z M337.112,170.307h-48.505v-67.368h48.505V170.307z"/>
	</g>
</g>
<g>
	<g>
		<path d="M369.448,86.77v99.705h80.842V86.77H369.448z M434.122,170.307h-48.505v-67.368h48.505V170.307z"/>
	</g>
</g>
<g>
	<g>
		<path d="M176.505,203.183v99.705h80.842v-99.705H176.505z M241.179,286.72h-48.505v-67.368h48.505V286.72z"/>
	</g>
</g>
<g>
	<g>
		<path d="M272.438,203.183v99.705h80.842v-99.705H272.438z M337.112,286.72h-48.505v-67.368h48.505V286.72z"/>
	</g>
</g>
<g>
	<g>
		<path d="M369.448,203.183v99.705h80.842v-99.705H369.448z M434.122,286.72h-48.505v-67.368h48.505V286.72z"/>
	</g>
</g>
<g>
	<g>
		<polygon points="62.899,126.148 62.899,141.903 47.585,141.903 47.585,126.148 38.789,126.148 38.789,163.84 47.585,163.84 
			47.585,147.904 62.899,147.904 62.899,163.84 71.696,163.84 71.696,126.148 		"/>
	</g>
</g>
<g>
	<g>
		<path d="M73.442,189.14c-0.94-2.346-2.264-4.381-3.971-6.105c-1.707-1.725-3.764-3.083-6.171-4.074
			c-2.405-0.992-5.075-1.487-8.007-1.487c-2.933,0-5.605,0.492-8.02,1.475c-2.414,0.983-4.479,2.337-6.196,4.062
			c-1.716,1.725-3.043,3.76-3.983,6.105c-0.94,2.345-1.411,4.881-1.411,7.606s0.471,5.26,1.411,7.606
			c0.94,2.345,2.268,4.385,3.983,6.118c1.717,1.733,3.781,3.091,6.196,4.074c2.414,0.983,5.088,1.475,8.02,1.475
			c2.932,0,5.601-0.492,8.007-1.475c2.406-0.983,4.464-2.341,6.171-4.074c1.707-1.733,3.031-3.773,3.971-6.118
			c0.94-2.346,1.41-4.881,1.41-7.606C74.852,194.012,74.382,191.486,73.442,189.14z M65.177,201.778
			c-0.483,1.492-1.177,2.755-2.082,3.79c-0.907,1.035-2.014,1.824-3.324,2.367c-1.312,0.543-2.804,0.815-4.475,0.815
			c-1.69,0-3.195-0.272-4.514-0.815c-1.319-0.543-2.432-1.332-3.337-2.367c-0.905-1.035-1.6-2.298-2.082-3.79
			c-0.483-1.492-0.724-3.178-0.724-5.057c0-1.863,0.241-3.54,0.724-5.032c0.482-1.492,1.177-2.755,2.082-3.79
			c0.905-1.035,2.018-1.828,3.337-2.38c1.32-0.552,2.824-0.828,4.514-0.828c1.673,0,3.165,0.276,4.475,0.828
			c1.311,0.552,2.418,1.345,3.324,2.38c0.905,1.035,1.599,2.298,2.082,3.79c0.482,1.492,0.724,3.169,0.724,5.032
			C65.901,198.6,65.659,200.286,65.177,201.778z"/>
	</g>
</g>
<g>
	<g>
		<polygon points="40.264,229.626 40.264,236.559 50.87,236.559 50.87,267.318 59.614,267.318 59.614,236.559 70.221,236.559 
			70.221,229.626 		"/>
	</g>
</g>
<g>
	<g>
		<polygon points="67.996,288.091 67.996,281.365 43.73,281.365 43.73,319.057 67.996,319.057 67.996,312.331 52.526,312.331 
			52.526,303.354 64.375,303.354 64.375,296.887 52.526,296.887 52.526,288.091 		"/>
	</g>
</g>
<g>
	<g>
		<polygon points="53.664,363.811 53.664,333.104 44.92,333.104 44.92,370.796 67.634,370.796 67.634,363.811 		"/>
	</g>
</g>
<g>
	<g>
		<rect x="289.684" y="29.642" width="16.168" height="16.168"/>
	</g>
</g>
<g>
	<g>
		<rect x="354.358" y="29.642" width="16.168" height="16.168"/>
	</g>
</g>
<g>
	<g>
		<rect x="322.021" y="29.642" width="16.168" height="16.168"/>
	</g>
</g>
<g>
	<g>
		<rect x="257.347" y="29.642" width="16.168" height="16.168"/>
	</g>
</g>
<g>
</g>
<g>
</g>
<g>
</g>
<g>
</g>
<g>
</g>
<g>
</g>
<g>
</g>
<g>
</g>
<g>
</g>
<g>
</g>
<g>
</g>
<g>
</g>
<g>
</g>
<g>
</g>
<g>
</g>
</svg>
