<?xml version="1.0" encoding="utf-8"?>
<!-- Generator: Adobe Illustrator 23.0.1, SVG Export Plug-In . SVG Version: 6.00 Build 0)  -->
<svg version="1.1" id="Layer_1" xmlns="http://www.w3.org/2000/svg" xmlns:xlink="http://www.w3.org/1999/xlink" x="0px" y="0px"
	 viewBox="0 0 462 247" style="enable-background:new 0 0 462 247;" xml:space="preserve">

<g>
	<g fill="#ffffff14">
		<path d="M235,49.9c6.8-3.2,13.9-4.8,21.5-4.3c2.7,0.2,4.8-1.9,4.9-6.3c-3.4,1.8-6.1,3.1-8.6,4.4c-1.1-2-2.1-3.8-3.6-6.4
			c-0.1,0.8-0.2,0.3,0,0.1c7.8-7,16.8-12.2,27.1-13.5c4-0.5,8.6,3,14.2,5.3c5.5-1.2,12.9-2.8,20.9-4.6c0.2,1.3,0.6,3.1,1,5.1
			c1.1-0.2,2.2-0.4,3.6-0.6c-2.3-2.5-3.1-4.6,0.7-5.9c5.3-1.8,10.6-3.6,15.9-5.3c0.7-0.2,1.9-0.1,2.4,0.3c6.3,6.1,14.7,7.7,21.9,5.4
			c7.9-2.5,13.3,1.1,19.7,2.9c4.3,1.2,8.8,1.2,13.2,2.1c8.1,1.6,16.2,3.4,24.2,5.3c1,0.2,1.8,1.3,2.6,1.9c-3.5,2.7-6.8,5.2-10.2,7.9
			c1.2,4,7.6,5.5,5.7,13c-3-3.7-5.4-6.4-7.6-9.3c-1.3-1.7-1.9-4-3.4-5.4c-1.1-0.9-3.2-1-4.8-0.9c-3.9,0.4-7.8,1.1-12,1.8
			c-1.9,4.6,2,6.8,4.9,7.2c6.4,0.9,7.5,5.4,8.9,10.1c0.3,1.1,0.6,2.2,1.1,4.1c-1.6-1.4-2.6-2.2-3.2-2.8c-2.9,2-6,3.5-8.1,5.8
			c-1.3,1.5-1.5,4.4-1.3,6.5c0.3,2.3,1.7,4.4,1.8,7.1c-3.9-3.6-7.9-7.2-12.1-11.1c-1.2,1.4-2,2.4-3.3,3.9c2.3,1.1,4.3,2,5.2,2.4
			c1.6,4.2,2.4,7.9,4.2,11.1c1.8,3.2,1.6,5.7-0.2,8.7c-3.6,6-7.6,11.3-15.1,12.7c-3.6,0.7-3.8,2.9-2,5.9c1.5,2.4,3.1,5,3.4,7.6
			c0.2,1.9-1.5,4.1-2.4,6.1c-1.6-0.8-3.2-1.5-4.7-2.4c-1.4-0.9-2.6-2-4-3.1c-2.3,3.9-1.9,7.2,0.8,10.4c2.2,2.7,4.4,5.5,2.2,9.8
			c-3.1-6.3-8.7-11-6.7-18.9c0.4-1.7-2.1-4.3-3.4-6.3c-1.8-2.9-3.6-5.9-5.8-8.5c-3.6-4.4-5.5-4.1-8.6,0.7
			c-4.1,6.4-8.2,12.9-12.9,20.3c-1.7-4.7-4.3-9.3-4.9-14.1c-0.9-7.5-6.2-11.8-10-17.2c-0.8-1.1-2.4-2.1-3.7-2.3
			c-7.8-1.2-15.9-1.6-19.3-11.2c-0.6,0.4-1.1,0.8-1.7,1.2c0.7,2.8,0.7,6.2,2.3,8.3c1.2,1.6,4.5,1.7,7.2,2c7.1,7.7,6.7,8.3-3.5,16.5
			c-3.5,2.8-8.2,4.2-13.4,6.8c-3.6-10.9-7-21.4-10.4-32c-0.6,0.1-1.2,0.2-1.8,0.3c-0.2,1.6-0.9,3.4-0.5,4.8c2,7.4,3.9,14.7,6.6,21.9
			c2.5,6.7,8.4,8,16.3,7.3c-3.1,6.4-5.5,12.1-8.6,17.4c-1.7,2.9-4.7,5.1-7,7.8c-4.1,4.6-6.2,9.6-3.5,15.9c2.1,4.9-0.7,8.8-3.3,12.9
			c-2.3,3.5-3.7,7.6-5.7,11.3c-3.2,6-6.4,11.9-9.9,17.6c-0.9,1.5-3.2,2.5-5,2.9c-6.4,1.5-8.5,0-11-6c-5.3-12.9-6.4-26.4-6.1-40.2
			c0.1-5.6-0.2-10.9-3.6-15.8c-0.9-1.3-1-3.5-0.8-5.2c0.7-6.1-3.3-10.2-9.4-9.1c-19.4,3.7-18.7-1.2-25.7-15.6
			c-0.4-0.8-0.5-2-0.2-2.8c4.2-12.2,9.7-23.6,18.5-33.3c4.2-4.6,9-7.2,15.3-7c3.2,0.1,6.3-0.4,9.5-0.4c3.2,0,5.7,0.3,7.4,4.2
			c1.5,3.5,5.3,4.9,9.7,4.5c5.2-0.5,10.4-0.1,15.7-0.1c0.1,0.6,0.3,1.1,0.4,1.7c1.9-2.8,3.7-5.7,6.1-9.2c-3.7-0.3-6.9,0.4-8.8-0.9
			c-1.7-1.1-1.9-4.4-3.4-8.3c-1.7,3.8-2.9,6.7-4.5,10.4c-3.3-5.3-0.5-12.7-7.4-16c-0.4,3.9,6.3,6.2,1.2,9.9c-7.1-9.6-8.5-9.9-19-3.8
			c-3,1.7-5.4,4.3-8.4,6c-1.1,0.7-3.6,0.7-4.4-0.1c-0.9-0.8-1.2-3.2-0.8-4.5c1.3-3.5,3-6.4,7.7-6.4c4.8,0,6.3-2.4,5.4-7.1
			c2.9-1.3,5.8-2.7,8.7-4C235.2,49.8,235,49.9,235,49.9z"/>
		<path d="M66.5,21.5c3.5,4.2,13.1,3.9,16.1-0.4c3.3,1.3,6.5,2.6,10.3,4c-3.1,2.1-6.3,4.3-9.8,6.6c0,0.9,0.2,2.4,0,3.8
			c-0.7,4.8,1.3,6.6,6.1,6.7c1.7,0,3.5,1.7,4.8,3.1c0.8,0.8,0.8,2.5,1.2,3.8c0.8-0.6,1.7-1.2,2.5-1.8c0-5.2,0-10.3,0-15.4
			c1-0.2,1.4-0.4,1.6-0.3c7.2,6.1,17.6,7.3,24.1,16.4c-4.2,1-8,1.9-12.4,3c2.7,2.5,4.6,4.3,7.4,6.8c-9.5,0.8-12,7.7-15.3,13.6
			c-3.3,6.1-7.4,12.1-4.3,19.9c-0.7,0.1-1.3,0.1-2,0.2c-1.1-2.9-2.3-5.8-3.8-9.7c-4,0.4-8.9,0.8-13.7,1.7c-1.3,0.3-3.2,2.3-3.3,3.6
			c-0.3,4.8-0.2,9.6,0.2,14.4c0.3,3.2,4.5,4,6.8,1.4c1-1.2,1.2-3.1,1.8-4.7c0.9,0.7,1.8,1.3,2.7,2c0,3.3,0,6.6,0,10.4
			c5.6-0.2,6.9,2.9,6.4,7.6c-0.4,3.4,1.3,5.3,5,5.2c1.5,0,3,0.8,4.7,1.2c1.3-1.6,3-3.6,3.7-4.6c2.9,0.4,4.6,1,6.2,0.9
			c11.1-0.9,13.3-1.2,17.2,8.1c0.4,1,2.1,1.8,3.4,2.1c7.2,1.7,9.4,5.1,7.7,11.7c5.2,1.5,10.4,2.7,15.4,4.5
			c6.9,2.3,12.2,8.4,5.2,15.9c-2.3,2.5-2.7,6.6-4.5,9.7c-2.7,4.7-5.8,9.1-8.9,13.6c-2.6,3.7-6.1,6.9-8.1,10.9
			c-3.4,6.7-8.9,11.8-12.9,11.7c-1.8,2.3-2.8,5.2-4.5,5.7c-6.2,1.8-8.5,7.1-11.9,11.6c-2.6,3.4-4.9,7-7.3,10.5
			c-0.8-0.2-1.5-0.5-2.3-0.7c0-2.5-0.2-5.1,0.1-7.6c0.2-1.8,1.5-3.4,1.8-5.1c2.2-14.6,4.4-29.1,6.3-43.7c0.3-2.1-0.9-4.6-2-6.5
			c-4.1-7.2-9.7-13.9-12.3-21.5c-1.3-4,2.5-9.7,4-14.6c0.7-2.3,2.2-4.7,1.9-6.9c-0.2-1.7-2.3-3.3-3.9-4.5c-2.3-1.7-6-2.5-7.2-4.7
			c-3.4-6.1-9.4-7.9-14.9-10.2c-6.8-2.8-12.9-5.5-14.8-13.8c-1-4.1-4.2-7.8-7.1-11.3c1,2.8,2,5.7,3,8.5c-0.4,0.2-0.8,0.4-1.2,0.6
			c-1.9-3.6-3.8-7.1-5.6-10.7c-1.1-2.2-1.7-4.8-3-6.8c-4.6-7-4.8-14.4-2.2-22c1.1-3.3,1.1-6-1.1-8.8c-1.1-1.4-1.8-3.2-2.6-4.8
			c-4.4-8.8-9-9.2-17.2-4.9c-3.9,2-8,3.5-12.7,5.5c1-3.8,7-4.3,3.9-7.9c1.7-2.5,3.3-4.9,5-7.2c0.6-0.8,1.7-1.3,2.5-2
			c1.4-1.1,2.8-2.5,4.3-3.4c1.7-1.1,3.7-2.6,5.5-2.5c10.4,0.6,20.9,1.6,31.3,2.5c1,0.1,2,0.1,2.9,0.2L66.5,21.5z"/>
		<path d="M382.6,216c-1-4.2-1.8-7.9-2.7-11.6c-1.8-7.4-0.5-13.2,6.7-17.5c2.7-1.6,3.9-5.5,6.1-8.2c0.9-1.1,2.6-1.7,3.9-2.5
			c0.3,0.4,0.6,0.8,0.9,1.3c1.2-2,2.5-4.1,3.7-6c3.9,0.5,8.4-0.2,7.8,6.2c-0.1,1.4,3.2,3.2,5,4.8c1.1-1.6,2.3-3.1,3.1-4.9
			c0.6-1.5,0.7-3.2,1.9-5c1.1,2.7,2.2,5.4,3.5,8.1c2.1,4.7,3.8,9.6,6.5,13.9c4.8,7.5,4.5,18.1-2.4,23.6c-3,2.4-7.9,2.8-12,2.9
			c-1.3,0-2.7-4.2-4.2-6.8c0.1,0-0.8,0.4-1.1,0.2c-8.1-6.8-15.6,0.2-23.4,1C384.9,215.4,384,215.7,382.6,216z"/>
		<path d="M98.4,11.7c10.6-0.7,21.4-2.5,31.4,2.6c2.7,1.4,3.9,5.4,5.7,8.3c0.2,0.3-0.4,1-0.7,1.5c-1.7,3.2-3.5,6.3-5.8,10.4
			c-4-0.1-7-4-9.7-7.8c-4.4-6.1-10.5-9.3-17.2-11.7c-1.4-0.5-2.8-1.3-4.2-1.9C98.1,12.6,98.3,12.2,98.4,11.7z"/>
		<path d="M402.6,149.5c12.5-1.8,26,7.9,27.2,19.4c-0.6,0.1-1.5,0.5-1.8,0.2c-6.9-6.4-17.2-7.7-23.2-15.2
			C403.9,152.7,403.4,151.1,402.6,149.5z"/>
		<path d="M381.7,135.4c3.4,6.5,3.1,11.5-2,16.6c-1.3,1.3-4.6,1.8-6.2,1c-1.9-0.9-3.5-3.3-4.3-5.4c-0.5-1.2,0.6-3.7,1.7-4.6
			C374.1,140.2,377.8,138,381.7,135.4z"/>
		<path d="M280.3,167c0.2,1.1,1,3.1,0.6,4.9c-1.3,6.1-2.7,12.3-4.6,18.2c-0.5,1.5-3,2.3-4.6,3.5c-0.6-1.7-1.8-3.4-1.7-5.1
			c0.3-4.2,1.2-8.3,2-12.5c0.1-0.7,0.8-1.4,1.4-1.9C275.8,171.8,278,169.4,280.3,167z"/>
		<path d="M108.9,26.6c-1.3,1.4-2.4,2.6-3.7,4.1c-2.3-0.6-5-1.3-7.8-2c2.3-3.4,1.4-5.6-2.9-6.5c-0.8-0.2-1.7-0.1-2.5-0.4
			c-1.5-0.6-2.9-1.3-4.4-2c1.8-0.6,3.7-1.9,5.3-1.6c2.7,0.5,5.3,1.8,7.7,3.1c1.4,0.7,2.5,2.2,3.8,3.1
			C106,25.2,107.5,25.8,108.9,26.6z"/>
		<path d="M349.1,136.4c8.1,3,16.1,14.3,14.6,20.1C355.9,152.1,353.5,144.4,349.1,136.4z"/>
		<path d="M235.2,49.8c-3.9,0-7.8,0-11.7,0c-0.1-0.4-0.2-0.9-0.3-1.3c2.7-1.6,3.9-6.1,8.4-3.7c1.6-1.9,3.3-4,5-6.1
			c0.4,0.3,0.8,0.6,1.1,0.8c-0.9,3.5-1.9,7-2.8,10.5C235,49.9,235.2,49.8,235.2,49.8z"/>
		<path d="M401.6,70.6c0.8,3.2,2.6,6.6,2,9.5c-0.3,1.4-5.2,1.8-9.4,3c2.5-5,4.2-8.5,5.9-12C400.7,71,401.2,70.8,401.6,70.6z"/>
		<path d="M66.6,21.6c0.6-1.5,1.2-2.9,1.9-4.7c3.3,1.1,6.5,2.2,11,3.8c-5.3,3.3-9.1,2.4-13,0.9C66.5,21.5,66.6,21.6,66.6,21.6z"/>
		<path d="M446.7,228.7c0.6,6.1-3,9.9-9,10C441,235,443.8,231.8,446.7,228.7z"/>
		<path d="M104.7,103.6c-3.7-1.7-7.4-3.4-10.9-5c3.6-1.9,8.2-0.6,11.5,3.6C105.1,102.7,104.9,103.1,104.7,103.6z"/>
		<path d="M365.5,157c3.5,0.8,7.1,1.5,10.6,2.3c-0.1,0.7-0.3,1.4-0.4,2.1c-3.6-0.7-7.1-1.4-10.7-2
			C365.2,158.6,365.4,157.8,365.5,157z"/>
		<path d="M238.4,30.2c-2.8,1-5.6,1.9-8.4,2.9c-0.3-0.9-0.6-1.7-0.9-2.6c2.8-0.9,5.6-1.9,8.5-2.8C237.9,28.5,238.1,29.4,238.4,30.2z
			"/>
	</g>
</g>
</svg>
